# xmcd CD database file
#
# Track frame offsets:
#	150
#	12369
#	22952
#	33506
#	46535
#	57151
#	70581
#	82456
#	94811
#	104657
#	116864
#	129408
#	142048
#	155133
#	166678
#	179568
#	191668
#	204178
#	215101
#	228573
#
# Disc length: 3187 seconds
#
# Revision: 0
# Processed by: cddbd v1.5.2PL0 Copyright (c) Steve Scherf et al.
# Submitted via: CDex 2.01
#
DISCID=210c7114
DTITLE=Various Artist - Country Guys - Absolutely Essential D2
DYEAR=2015
DGENRE=Country
TTITLE0=Johnny Cash - I Walk The Line
TTITLE1=Leroy Van Dyke - Walk On By
TTITLE2=Slim Whitman - Rose Marie
TTITLE3=Gene Autry - South Of The Border
TTITLE4=Buck Owens - Under The Influence Of Love
TTITLE5=Claude King - Wolverton Mountain
TTITLE6=Marvin Rainwater - Whole Lotta Woman
TTITLE7=Hank Williams - Lovesick Blues
TTITLE8=Faron Young - Hello Walls
TTITLE9=Bob Wills and His Texas Playboys - Cotton Eyed Joe
TTITLE10=George Jones - White Lightning
TTITLE11=Hank Snow - (Now And Then There's ) A Fool Such As I
TTITLE12=Eddy Arnold - Anytime
TTITLE13=Don Gibson - Sea Of Heartbreak
TTITLE14=Jim Reeves - Four Walls
TTITLE15=Red Foley - Tennessee Saturday Night
TTITLE16=Roy Rogers - A Four-Legged Friend
TTITLE17=Carl Smith - When You Feel Like You're In Love (Don't Just Stand There)
TTITLE18=Merle Travis - So Round, So Firm, So Fully Packed
TTITLE19=Jimmy Lee - Go Ahead And Go
EXTD=YEAR: 2015
EXTT0=
EXTT1=
EXTT2=
EXTT3=
EXTT4=
EXTT5=
EXTT6=
EXTT7=
EXTT8=
EXTT9=
EXTT10=
EXTT11=
EXTT12=
EXTT13=
EXTT14=
EXTT15=
EXTT16=
EXTT17=
EXTT18=
EXTT19=
PLAYORDER=
